<svg overflow="visible" viewBox="0 0 25.6 25.6" xmlns="http://www.w3.org/2000/svg" fill-rule="evenodd" stroke-width=".50099999" stroke-linejoin="bevel"><path d="M7.44-9.353v-16.038c0-.343.28-.624.625-.624h5.209c.343 0 .624.281.624.624v16.038a.626.626 0 0 1-.624.625H8.065a.625.625 0 0 1-.625-.625zm5.21-.625v-14.788H8.69v14.788h3.96zM7.134-30.352c0-1.936 1.457-3.394 3.57-3.394 2.124 0 3.494 1.471 3.538 3.387 0 1.9-1.421 3.404-3.6 3.404-2.1 0-3.508-1.513-3.508-3.397zm5.859.008c-.029-1.233-.853-2.152-2.289-2.152-1.457 0-2.321.93-2.321 2.144 0 1.193.85 2.147 2.278 2.147 1.487 0 2.332-.961 2.332-2.139zM16.24-9.353c0-.017.066-14.395 0-15.863a.626.626 0 0 1 .624-.654h5.32c.344 0 .625.281.625.624v.527l.282-.25c.88-.712 2.116-1.275 3.89-1.275 3.882 0 6.75 2.598 6.75 7.777v9.115a.626.626 0 0 1-.625.625h-5.322a.625.625 0 0 1-.625-.625v-8.501c0-1.928-.593-2.97-2.07-2.97-1.132 0-1.828.744-2.151 1.547-.09.216-.129.578-.129 1.05v8.874a.626.626 0 0 1-.624.625h-5.32a.624.624 0 0 1-.625-.626zm5.32-.623v-8.25c0-.477.03-1.065.224-1.525.44-1.1 1.502-2.32 3.305-2.32 2.445 0 3.32 1.972 3.32 4.218v7.877h4.072v-8.49c0-4.57-2.378-6.528-5.5-6.528-1.459 0-2.433.448-3.117 1.006l-.592.577-.51.701a.632.632 0 0 1-.605.393.628.628 0 0 1-.633-.678l.036-.153v-1.473H17.5l.002.092c.035 2.769.002 11.362-.012 14.236l-.001.317h4.071z" transform="matrix(.6405 0 0 .64032 0 25.6)"  fill-opacity="1" fill-rule="evenodd" stroke="none" class="fill-000000"></path><path d="M0-3.652v-32.676a3.654 3.654 0 0 1 3.65-3.652h32.668a3.655 3.655 0 0 1 3.65 3.652v32.676A3.654 3.654 0 0 1 36.319 0H3.65A3.652 3.652 0 0 1 0-3.652zm38.72 0v-32.676a2.407 2.407 0 0 0-2.402-2.403H3.65a2.406 2.406 0 0 0-2.401 2.403v32.676A2.405 2.405 0 0 0 3.65-1.25h32.668a2.406 2.406 0 0 0 2.402-2.402z" transform="matrix(.6405 0 0 .64032 0 25.6)"  fill-opacity="1" fill-rule="evenodd" stroke="none" class="fill-000000"></path></svg>