<svg overflow="visible" viewBox="0 0 25.6 25.6" xmlns="http://www.w3.org/2000/svg" fill-rule="evenodd" stroke-width=".50099999" stroke-linejoin="bevel"><path d="M23.527-5.2a1.24 1.24 0 0 1-.238-.195 1.397 1.397 0 0 1-.366-.963c0-.483.016-2.07.016-4.04 0-1.244-.414-1.95-.764-2.259a.626.626 0 0 1 .341-1.09c3.014-.35 6-1.41 6-6.654 0-1.45-.5-2.619-1.319-3.532a.628.628 0 0 1-.114-.65c.098-.245.456-1.294.071-2.782l-.096-.29c-.47.04-1.48.282-3.125 1.425a.616.616 0 0 1-.526.088 12.798 12.798 0 0 0-6.836 0 .62.62 0 0 1-.526-.087c-1.65-1.144-2.66-1.386-3.126-1.426l-.093.29c-.383 1.488-.027 2.54.072 2.787a.626.626 0 0 1-.117.643c-.816.915-1.316 2.085-1.316 3.534 0 5.208 2.956 6.311 5.98 6.671a.625.625 0 0 1 .34 1.088c-.275.243-.59.743-.704 1.576a.625.625 0 0 1-.353.482c-.868.408-3.434 1.244-4.99-1.482-.006-.011-.163-.291-.45-.578l.294.417c.202.316.403.705.595 1.213-.037-.132.607 2.32 4.103 1.54a.623.623 0 0 1 .76.607c.003 1.201.02 2.186.02 2.51 0 .31-.1.69-.42 1.009l-.14.117c-.33.225-.733.28-1.16.2l-.086-.024c-5.95-2.034-10.23-7.799-10.23-14.578 0-8.458 6.683-15.347 14.961-15.347 8.277 0 14.974 6.887 14.974 15.347 0 6.78-4.278 12.537-10.225 14.578l-.081.022c-.411.081-.803.038-1.126-.167zm.853-1.054.95-.37c4.917-2.143 8.38-7.15 8.38-13.009 0-7.799-6.166-14.098-13.725-14.098-7.557 0-13.712 6.298-13.712 14.098 0 5.858 3.464 10.871 8.382 13.009l.947.366h.175l.035-.1c0-.27-.01-.83-.017-1.627l-.021-.134c-3.311.402-4.46-1.72-4.726-2.359l-.05-.131C10.41-12.147 9.6-12.49 9.722-12.43l-.087-.05c-.281-.199-.51-.399-.652-.612-.427-.641-.022-1.138.414-1.308.322-.123.713-.111.728-.111 1.822.128 2.72 1.864 2.708 1.84.76 1.33 1.838 1.407 2.656 1.209l.436-.155.077-.365c.07-.232.153-.447.263-.665l-.238-.047c-2.966-.626-5.81-2.394-5.81-7.707 0-1.323.346-2.476.949-3.45l.456-.61-.063-.225c-.187-.77-.325-2.126.313-3.792a.626.626 0 0 1 .39-.37c.21-.07 1.312-.311 3.492.953l.77.492 1.56-.322c.629-.085 1.265-.128 1.9-.133.639.005 1.278.048 1.91.133l1.56.322.768-.49c2.178-1.266 3.284-1.023 3.495-.955a.62.62 0 0 1 .388.37c.641 1.665.503 3.02.315 3.794l-.064.223.457.61c.603.974.952 2.127.952 3.45 0 5.348-2.872 7.084-5.837 7.696l-.251.04.173.328c.212.535.338 1.183.338 1.94 0 1.968-.016 3.556-.016 4.04l.028.104.18-.001z" transform="matrix(.6405 0 0 .64032 0 25.6)" fill-opacity="1" fill-rule="evenodd" stroke="none" class="fill-000000"></path><path d="M0-3.652v-32.676a3.654 3.654 0 0 1 3.65-3.652h32.668a3.655 3.655 0 0 1 3.65 3.652v32.676A3.654 3.654 0 0 1 36.319 0H3.65A3.652 3.652 0 0 1 0-3.652zm38.72 0v-32.676a2.407 2.407 0 0 0-2.402-2.403H3.65a2.406 2.406 0 0 0-2.401 2.403v32.676A2.405 2.405 0 0 0 3.65-1.25h32.668a2.406 2.406 0 0 0 2.402-2.402z" transform="matrix(.6405 0 0 .64032 0 25.6)"  fill-opacity="1" fill-rule="evenodd" stroke="none" class="fill-000000"></path></svg>